<svg width="112" height="20" viewBox="0 0 112 20" fill="none" xmlns="http://www.w3.org/2000/svg">
<g clip-path="url(#clip0_1_2)">
<path d="M23.912 7.815C24.152 7.425 24.497 7.11 24.947 6.87C25.397 6.63 25.912 6.51 26.492 6.51C27.182 6.51 27.807 6.685 28.367 7.035C28.927 7.385 29.367 7.885 29.687 8.535C30.017 9.185 30.182 9.94 30.182 10.8C30.182 11.66 30.017 12.42 29.687 13.08C29.367 13.73 28.927 14.235 28.367 14.595C27.807 14.945 27.182 15.12 26.492 15.12C25.902 15.12 25.387 15.005 24.947 14.775C24.507 14.535 24.162 14.22 23.912 13.83V15H21.347V3.9H23.912V7.815ZM27.572 10.8C27.572 10.16 27.392 9.66 27.032 9.3C26.682 8.93 26.247 8.745 25.727 8.745C25.217 8.745 24.782 8.93 24.422 9.3C24.072 9.67 23.897 10.175 23.897 10.815C23.897 11.455 24.072 11.96 24.422 12.33C24.782 12.7 25.217 12.885 25.727 12.885C26.237 12.885 26.672 12.7 27.032 12.33C27.392 11.95 27.572 11.44 27.572 10.8ZM32.8177 5.76C32.3677 5.76 31.9977 5.63 31.7077 5.37C31.4277 5.1 31.2877 4.77 31.2877 4.38C31.2877 3.98 31.4277 3.65 31.7077 3.39C31.9977 3.12 32.3677 2.985 32.8177 2.985C33.2577 2.985 33.6177 3.12 33.8977 3.39C34.1877 3.65 34.3327 3.98 34.3327 4.38C34.3327 4.77 34.1877 5.1 33.8977 5.37C33.6177 5.63 33.2577 5.76 32.8177 5.76ZM34.0927 6.63V15H31.5277V6.63H34.0927ZM41.0515 6.54C42.0315 6.54 42.8115 6.86 43.3915 7.5C43.9815 8.13 44.2765 9 44.2765 10.11V15H41.7265V10.455C41.7265 9.895 41.5815 9.46 41.2915 9.15C41.0015 8.84 40.6115 8.685 40.1215 8.685C39.6315 8.685 39.2415 8.84 38.9515 9.15C38.6615 9.46 38.5165 9.895 38.5165 10.455V15H35.9515V6.63H38.5165V7.74C38.7765 7.37 39.1265 7.08 39.5665 6.87C40.0065 6.65 40.5015 6.54 41.0515 6.54ZM50.7239 12.825V15H49.4189C48.4889 15 47.7639 14.775 47.2439 14.325C46.7239 13.865 46.4639 13.12 46.4639 12.09V8.76H45.4439V6.63H46.4639V4.59H49.0289V6.63H50.7089V8.76H49.0289V12.12C49.0289 12.37 49.0889 12.55 49.2089 12.66C49.3289 12.77 49.5289 12.825 49.8089 12.825H50.7239ZM60.0427 10.68C60.0427 10.92 60.0277 11.17 59.9977 11.43H54.1927C54.2327 11.95 54.3977 12.35 54.6877 12.63C54.9877 12.9 55.3527 13.035 55.7827 13.035C56.4227 13.035 56.8677 12.765 57.1177 12.225H59.8477C59.7077 12.775 59.4527 13.27 59.0827 13.71C58.7227 14.15 58.2677 14.495 57.7177 14.745C57.1677 14.995 56.5527 15.12 55.8727 15.12C55.0527 15.12 54.3227 14.945 53.6827 14.595C53.0427 14.245 52.5427 13.745 52.1827 13.095C51.8227 12.445 51.6427 11.685 51.6427 10.815C51.6427 9.945 51.8177 9.185 52.1677 8.535C52.5277 7.885 53.0277 7.385 53.6677 7.035C54.3077 6.685 55.0427 6.51 55.8727 6.51C56.6827 6.51 57.4027 6.68 58.0327 7.02C58.6627 7.36 59.1527 7.845 59.5027 8.475C59.8627 9.105 60.0427 9.84 60.0427 10.68ZM57.4177 10.005C57.4177 9.565 57.2677 9.215 56.9677 8.955C56.6677 8.695 56.2927 8.565 55.8427 8.565C55.4127 8.565 55.0477 8.69 54.7477 8.94C54.4577 9.19 54.2777 9.545 54.2077 10.005H57.4177ZM63.9608 8.025C64.2608 7.565 64.6358 7.205 65.0858 6.945C65.5358 6.675 66.0358 6.54 66.5858 6.54V9.255H65.8808C65.2408 9.255 64.7608 9.395 64.4408 9.675C64.1208 9.945 63.9608 10.425 63.9608 11.115V15H61.3958V6.63H63.9608V8.025ZM75.7018 10.68C75.7018 10.92 75.6868 11.17 75.6568 11.43H69.8518C69.8918 11.95 70.0568 12.35 70.3468 12.63C70.6468 12.9 71.0118 13.035 71.4418 13.035C72.0818 13.035 72.5268 12.765 72.7768 12.225H75.5068C75.3668 12.775 75.1118 13.27 74.7418 13.71C74.3818 14.15 73.9268 14.495 73.3768 14.745C72.8268 14.995 72.2118 15.12 71.5318 15.12C70.7118 15.12 69.9818 14.945 69.3418 14.595C68.7018 14.245 68.2018 13.745 67.8418 13.095C67.4818 12.445 67.3018 11.685 67.3018 10.815C67.3018 9.945 67.4768 9.185 67.8268 8.535C68.1868 7.885 68.6868 7.385 69.3268 7.035C69.9668 6.685 70.7018 6.51 71.5318 6.51C72.3418 6.51 73.0618 6.68 73.6918 7.02C74.3218 7.36 74.8118 7.845 75.1618 8.475C75.5218 9.105 75.7018 9.84 75.7018 10.68ZM73.0768 10.005C73.0768 9.565 72.9268 9.215 72.6268 8.955C72.3268 8.695 71.9518 8.565 71.5018 8.565C71.0718 8.565 70.7068 8.69 70.4068 8.94C70.1168 9.19 69.9368 9.545 69.8668 10.005H73.0768ZM80.46 15.12C79.73 15.12 79.08 14.995 78.51 14.745C77.94 14.495 77.49 14.155 77.16 13.725C76.83 13.285 76.645 12.795 76.605 12.255H79.14C79.17 12.545 79.305 12.78 79.545 12.96C79.785 13.14 80.08 13.23 80.43 13.23C80.75 13.23 80.995 13.17 81.165 13.05C81.345 12.92 81.435 12.755 81.435 12.555C81.435 12.315 81.31 12.14 81.06 12.03C80.81 11.91 80.405 11.78 79.845 11.64C79.245 11.5 78.745 11.355 78.345 11.205C77.945 11.045 77.6 10.8 77.31 10.47C77.02 10.13 76.875 9.675 76.875 9.105C76.875 8.625 77.005 8.19 77.265 7.8C77.535 7.4 77.925 7.085 78.435 6.855C78.955 6.625 79.57 6.51 80.28 6.51C81.33 6.51 82.155 6.77 82.755 7.29C83.365 7.81 83.715 8.5 83.805 9.36H81.435C81.395 9.07 81.265 8.84 81.045 8.67C80.835 8.5 80.555 8.415 80.205 8.415C79.905 8.415 79.675 8.475 79.515 8.595C79.355 8.705 79.275 8.86 79.275 9.06C79.275 9.3 79.4 9.48 79.65 9.6C79.91 9.72 80.31 9.84 80.85 9.96C81.47 10.12 81.975 10.28 82.365 10.44C82.755 10.59 83.095 10.84 83.385 11.19C83.685 11.53 83.84 11.99 83.85 12.57C83.85 13.06 83.71 13.5 83.43 13.89C83.16 14.27 82.765 14.57 82.245 14.79C81.735 15.01 81.14 15.12 80.46 15.12ZM90.0843 12.825V15H88.7793C87.8493 15 87.1243 14.775 86.6043 14.325C86.0843 13.865 85.8243 13.12 85.8243 12.09V8.76H84.8043V6.63H85.8243V4.59H88.3893V6.63H90.0693V8.76H88.3893V12.12C88.3893 12.37 88.4493 12.55 88.5693 12.66C88.6893 12.77 88.8893 12.825 89.1693 12.825H90.0843Z" fill="#0052FF"/>
</g>
<defs>
<clipPath id="clip0_1_2">
<rect width="112" height="20" fill="white"/>
</clipPath>
</defs>
</svg>
